<svg preserveAspectRatio="none" width="100%" height="100%" overflow="visible" style="display: block;" viewBox="0 0 16 16" fill="none" xmlns="http://www.w3.org/2000/svg">
<g id="Frame" clip-path="url(#clip0_0_36)">
<path id="Vector" d="M8.39067 1.724C8.14068 1.47393 7.80159 1.33341 7.448 1.33333H2.66667C2.31304 1.33333 1.97391 1.47381 1.72386 1.72386C1.47381 1.97391 1.33333 2.31304 1.33333 2.66667V7.448C1.33341 7.80159 1.47393 8.14068 1.724 8.39067L7.52667 14.1933C7.82968 14.4944 8.2395 14.6634 8.66667 14.6634C9.09384 14.6634 9.50366 14.4944 9.80667 14.1933L14.1933 9.80667C14.4944 9.50366 14.6634 9.09384 14.6634 8.66667C14.6634 8.2395 14.4944 7.82968 14.1933 7.52667L8.39067 1.724Z" stroke="var(--stroke-0, #4A5565)" stroke-width="1.33282" stroke-linecap="round" stroke-linejoin="round"/>
<path id="Vector_2" d="M4.99987 5.33308C5.1839 5.33308 5.33308 5.1839 5.33308 4.99987C5.33308 4.81585 5.1839 4.66667 4.99987 4.66667C4.81585 4.66667 4.66667 4.81585 4.66667 4.99987C4.66667 5.1839 4.81585 5.33308 4.99987 5.33308Z" fill="var(--fill-0, #4A5565)" stroke="var(--stroke-0, #4A5565)" stroke-width="1.33282" stroke-linecap="round" stroke-linejoin="round"/>
</g>
<defs>
<clipPath id="clip0_0_36">
<rect width="16" height="16" fill="white"/>
</clipPath>
</defs>
</svg>
