<svg preserveAspectRatio="none" width="100%" height="100%" overflow="visible" style="display: block;" viewBox="0 0 16 16" fill="none" xmlns="http://www.w3.org/2000/svg">
<g id="Frame" clip-path="url(#clip0_0_26)">
<path id="Vector" d="M10.6667 1.33333L9.13333 2.86667C8.76688 3.24052 8.56161 3.74316 8.56161 4.26667C8.56161 4.79017 8.76688 5.29281 9.13333 5.66667L10.3333 6.86667C10.7072 7.23312 11.2098 7.43838 11.7333 7.43838C12.2568 7.43838 12.7595 7.23312 13.1333 6.86667L14.6667 5.33333" stroke="var(--stroke-0, #364153)" stroke-width="1.33282" stroke-linecap="round" stroke-linejoin="round"/>
<path id="Vector_2" d="M10 9.99999L2.2 2.19999C1.93392 2.46069 1.72253 2.77187 1.57823 3.11529C1.43392 3.45872 1.35959 3.82748 1.35959 4.19999C1.35959 4.5725 1.43392 4.94127 1.57823 5.28469C1.72253 5.62811 1.93392 5.93929 2.2 6.19999L7.06666 11.0667C7.53333 11.5333 8.4 11.5333 8.93333 11.0667L10 9.99999ZM10 9.99999L14.6667 14.6667" stroke="var(--stroke-0, #364153)" stroke-width="1.33282" stroke-linecap="round" stroke-linejoin="round"/>
<path id="Line" d="M1.4 14.5333L5.66667 10.3333" stroke="var(--stroke-0, #364153)" stroke-width="1.33282" stroke-linecap="round" stroke-linejoin="round"/>
<path id="Line_2" d="M12.6667 3.33333L8 8" stroke="var(--stroke-0, #364153)" stroke-width="1.33282" stroke-linecap="round" stroke-linejoin="round"/>
</g>
<defs>
<clipPath id="clip0_0_26">
<rect width="16" height="16" fill="white"/>
</clipPath>
</defs>
</svg>
